<?xml version="1.0" encoding="UTF-8" standalone="no"?>
<!-- Created with Inkscape (http://www.inkscape.org/) -->

<svg
   width="46.566925mm"
   height="38.100517mm"
   viewBox="0 0 46.566925 38.100517"
   version="1.1"
   id="svg1"
   xmlns="http://www.w3.org/2000/svg"
   xmlns:svg="http://www.w3.org/2000/svg">
  <defs
     id="defs1" />
  <g
     id="layer1"
     transform="translate(-3195.4881,-1349.9493)">
    <g
       id="g15-9-1"
       transform="translate(98.80686,352.99949)"
       style="fill:#2c3643;fill-opacity:1">
      <path
         id="path22-48-0-5-0-9-6-2-1-5"
         style="color:#000000;fill:#2c3643;fill-opacity:1;stroke-width:0.999999;stroke-linecap:round;stroke-linejoin:round;-inkscape-stroke:none"
         d="m 3107.2656,996.94974 c -5.8196,-2e-5 -10.5832,4.76406 -10.5833,10.58356 0,5.8196 4.7637,10.5831 10.5833,10.5831 5.8196,-10e-5 10.5834,-4.7636 10.5834,-10.5831 0,-5.8195 -4.7638,-10.58352 -10.5834,-10.58356 z m 0,4.23466 c 3.5319,0 6.3492,2.8172 6.3492,6.3489 0,0.4014 -0.038,0.7926 -0.1075,1.1725 a 4.2331068,4.2330269 0 0 0 -4.1256,-3.2895 4.2331068,4.2330269 0 0 0 -4.2332,4.2335 4.2331068,4.2330269 0 0 0 3.3128,4.1204 c -0.387,0.072 -0.7861,0.1121 -1.1957,0.1121 -3.5319,0 -6.3492,-2.8172 -6.3492,-6.349 0,-3.5318 2.8173,-6.3489 6.3492,-6.3489 z" />
      <path
         id="path22-4-8-2-8-5-9-3-3-7-9"
         style="color:#000000;fill:#2c3643;fill-opacity:1;stroke-width:0.999996;stroke-linecap:round;stroke-linejoin:round;-inkscape-stroke:none"
         d="m 3132.6662,996.94974 c -5.82,4e-5 -10.5846,4.76406 -10.5846,10.58356 0,5.8195 4.7646,10.583 10.5846,10.5831 5.8201,0 10.5822,-4.7635 10.5821,-10.5831 0,-5.8195 -4.762,-10.58358 -10.5821,-10.58356 z m 0,4.23466 c 3.5322,0 6.3497,2.8171 6.3497,6.3489 0,3.5318 -2.8175,6.349 -6.3497,6.349 -0.6664,0 -1.3074,-0.1003 -1.909,-0.2867 a 4.233427,4.2330269 0 0 0 2.7033,-3.9458 4.233427,4.2330269 0 0 0 -4.2334,-4.2329 4.233427,4.2330269 0 0 0 -2.8289,1.0908 c 0.4841,-3.0362 3.0856,-5.3233 6.268,-5.3233 z" />
      <path
         style="color:#000000;fill:#2c3643;fill-opacity:1;stroke-width:1;stroke-linecap:round;stroke-linejoin:round;-inkscape-stroke:none"
         d="m 3098.7986,1022.3502 a 2.1164949,2.1162634 0 0 0 -2.1172,2.117 c 0,0 -0.027,2.5579 1.2832,5.1792 1.3109,2.6212 4.3621,5.4038 9.3009,5.4038 h 25.4005 c 0,0 2.5582,0.028 5.1797,-1.2831 2.6215,-1.3107 5.4024,-4.3615 5.4024,-9.2999 a 2.1164949,2.1162634 0 0 0 -2.1152,-2.117 2.1164949,2.1162634 0 0 0 -2.1173,2.117 c 0,3.5277 -1.4506,4.7092 -3.0625,5.5151 -1.6118,0.8059 -3.2871,0.8339 -3.2871,0.8339 h -25.4005 c -3.5278,0 -4.7097,-1.4505 -5.5156,-3.0622 -0.8059,-1.6118 -0.834,-3.2868 -0.834,-3.2868 a 2.1164949,2.1162634 0 0 0 -2.1173,-2.117 z"
         id="path56-3-5-6-7-8" />
    </g>
  </g>
</svg>
