<?xml version="1.0" encoding="UTF-8" standalone="no"?>
<!-- Created with Inkscape (http://www.inkscape.org/) -->

<svg
   width="101.6mm"
   height="24.713867mm"
   viewBox="0 0 101.6 24.713867"
   version="1.1"
   id="svg1"
   xmlns="http://www.w3.org/2000/svg"
   xmlns:svg="http://www.w3.org/2000/svg">
  <defs
     id="defs1" />
  <g
     id="layer1"
     transform="translate(-3165.4749,-1224.7563)">
    <g
       id="g16-6-6"
       style="fill:#2c3643;fill-opacity:1;stroke-width:1.54167"
       transform="matrix(0.64864875,0,0,0.64864875,1180.1557,576.71297)">
      <path
         id="path21-0-8-2-2-4-4-0-9-3"
         style="color:#000000;fill:#2c3643;fill-opacity:1;stroke:none;stroke-width:1.54167;stroke-linecap:round;stroke-linejoin:round;stroke-opacity:1;-inkscape-stroke:none"
         d="m 3079.7483,999.06659 c -8.0014,0 -15.1638,5.01701 -17.9005,12.53611 -2.7367,7.5189 -0.4734,15.9666 5.6561,21.11 6.1294,5.1432 14.8407,5.9051 21.7701,1.9043 a 2.116714,2.1167372 0 0 0 0.7752,-2.8929 2.116714,2.1167372 0 0 0 -2.8924,-0.7736 c -5.4006,3.1182 -12.1548,2.5265 -16.9321,-1.4822 -4.7773,-4.0086 -6.5333,-10.5583 -4.4003,-16.4186 2.1329,-5.8602 7.6877,-9.748 13.9239,-9.748 h 8.4669 a 2.116544,2.1165672 0 0 0 2.1172,-2.1173 2.116544,2.1165672 0 0 0 -2.1172,-2.11781 z" />
      <path
         id="path23-89-1-6-5-3-7-7-3-9"
         style="color:#000000;fill:#2c3643;fill-opacity:1;stroke-width:1.54166;stroke-linecap:round;stroke-linejoin:round;-inkscape-stroke:none"
         d="m 3147.4838,999.06659 a 2.1167246,2.1165509 0 0 0 -2.1172,2.11761 2.1167246,2.1165509 0 0 0 2.1172,2.1171 c 3.5279,0 4.7082,1.4504 5.5141,3.0621 0.8059,1.6117 0.8356,3.287 0.8356,3.287 v 23.2815 h -6.3497 a 2.1167246,2.1165509 0 0 0 -2.1172,2.1177 2.1167246,2.1165509 0 0 0 2.1172,2.117 h 8.4654 8.467 a 2.1167246,2.1165509 0 0 0 2.1171,-2.117 2.1167246,2.1165509 0 0 0 -2.1171,-2.1177 h -6.3498 v -23.2815 c 0,0 0.03,-2.5584 -1.2816,-5.1798 -1.3109,-2.6214 -4.3619,-5.40401 -9.301,-5.40401 z" />
      <path
         id="path25-76-5-8-90-0-4-9-7-4"
         style="color:#000000;fill:#2c3643;fill-opacity:1;stroke-width:1.54167;stroke-linecap:round;stroke-linejoin:round;-inkscape-stroke:none"
         d="m 3172.8816,999.06659 a 2.1167013,2.116628 0 0 0 -2.1151,2.11761 v 25.3996 c 0,3.7776 2.0197,7.2774 5.2913,9.1662 3.2717,1.8888 7.3124,1.8888 10.584,0 3.2716,-1.8888 5.2914,-5.3886 5.2914,-9.1662 v -25.3996 a 2.1167013,2.116628 0 0 0 -2.1173,-2.11761 2.1167013,2.116628 0 0 0 -2.1172,2.11761 v 25.3996 c -10e-5,2.272 -1.2065,4.3639 -3.1741,5.4998 -1.9676,1.136 -4.3819,1.136 -6.3496,0 -1.9676,-1.1359 -3.1761,-3.2278 -3.1761,-5.4998 v -25.3996 a 2.1167013,2.116628 0 0 0 -2.1173,-2.11761 z" />
      <path
         id="path28-3-0-2-3-2-7-8-4-8"
         style="color:#000000;fill:#2c3643;fill-opacity:1;stroke-width:1.54166;stroke-linecap:round;stroke-linejoin:round;-inkscape-stroke:none"
         d="m 3198.2836,999.06659 c -1.1695,-2.4e-4 -2.1176,0.94801 -2.117,2.11761 -3e-4,1.1693 0.9477,2.1173 2.117,2.1171 h 6.3492 v 29.6306 h -6.3492 c -1.1695,-2e-4 -2.1176,0.9482 -2.117,2.1177 -2e-4,1.1692 0.9478,2.1172 2.117,2.117 h 16.9326 c 1.1693,3e-4 2.1173,-0.9477 2.1171,-2.117 6e-4,-1.1696 -0.9475,-2.118 -2.1171,-2.1177 h -6.3492 v -29.6306 h 6.3492 c 1.1693,3e-4 2.1174,-0.9478 2.1171,-2.1171 6e-4,-1.1696 -0.9476,-2.11791 -2.1171,-2.11761 z" />
      <g
         id="g15-5-1"
         transform="translate(-2.1150595,2.1168459)"
         style="fill:#2c3643;fill-opacity:1;stroke-width:1.54167">
        <path
           id="path22-48-0-5-0-9-6-2-2-2"
           style="color:#000000;fill:#2c3643;fill-opacity:1;stroke-width:1.54166;stroke-linecap:round;stroke-linejoin:round;-inkscape-stroke:none"
           d="m 3107.2656,996.94974 c -5.8196,-2e-5 -10.5832,4.76406 -10.5833,10.58356 0,5.8196 4.7637,10.5831 10.5833,10.5831 5.8196,-10e-5 10.5834,-4.7636 10.5834,-10.5831 0,-5.8195 -4.7638,-10.58352 -10.5834,-10.58356 z m 0,4.23466 c 3.5319,0 6.3492,2.8172 6.3492,6.3489 0,0.4014 -0.038,0.7926 -0.1075,1.1725 a 4.2331068,4.2330269 0 0 0 -4.1256,-3.2895 4.2331068,4.2330269 0 0 0 -4.2332,4.2335 4.2331068,4.2330269 0 0 0 3.3128,4.1204 c -0.387,0.072 -0.7861,0.1121 -1.1957,0.1121 -3.5319,0 -6.3492,-2.8172 -6.3492,-6.349 0,-3.5318 2.8173,-6.3489 6.3492,-6.3489 z" />
        <path
           id="path22-4-8-2-8-5-9-3-3-5-9"
           style="color:#000000;fill:#2c3643;fill-opacity:1;stroke-width:1.54166;stroke-linecap:round;stroke-linejoin:round;-inkscape-stroke:none"
           d="m 3132.6662,996.94974 c -5.82,4e-5 -10.5846,4.76406 -10.5846,10.58356 0,5.8195 4.7646,10.583 10.5846,10.5831 5.8201,0 10.5822,-4.7635 10.5821,-10.5831 0,-5.8195 -4.762,-10.58358 -10.5821,-10.58356 z m 0,4.23466 c 3.5322,0 6.3497,2.8171 6.3497,6.3489 0,3.5318 -2.8175,6.349 -6.3497,6.349 -0.6664,0 -1.3074,-0.1003 -1.909,-0.2867 a 4.233427,4.2330269 0 0 0 2.7033,-3.9458 4.233427,4.2330269 0 0 0 -4.2334,-4.2329 4.233427,4.2330269 0 0 0 -2.8289,1.0908 c 0.4841,-3.0362 3.0856,-5.3233 6.268,-5.3233 z" />
        <path
           style="color:#000000;fill:#2c3643;fill-opacity:1;stroke-width:1.54167;stroke-linecap:round;stroke-linejoin:round;-inkscape-stroke:none"
           d="m 3098.7986,1022.3502 a 2.1164949,2.1162634 0 0 0 -2.1172,2.117 c 0,0 -0.027,2.5579 1.2832,5.1792 1.3109,2.6212 4.3621,5.4038 9.3009,5.4038 h 25.4005 c 0,0 2.5582,0.028 5.1797,-1.2831 2.6215,-1.3107 5.4024,-4.3615 5.4024,-9.2999 a 2.1164949,2.1162634 0 0 0 -2.1152,-2.117 2.1164949,2.1162634 0 0 0 -2.1173,2.117 c 0,3.5277 -1.4506,4.7092 -3.0625,5.5151 -1.6118,0.8059 -3.2871,0.8339 -3.2871,0.8339 h -25.4005 c -3.5278,0 -4.7097,-1.4505 -5.5156,-3.0622 -0.8059,-1.6118 -0.834,-3.2868 -0.834,-3.2868 a 2.1164949,2.1162634 0 0 0 -2.1173,-2.117 z"
           id="path56-3-5-6-4-3" />
      </g>
    </g>
  </g>
</svg>
