<?xml version="1.0" encoding="UTF-8" standalone="no"?>
<!-- Created with Inkscape (http://www.inkscape.org/) -->

<svg
   width="101.6mm"
   height="24.713608mm"
   viewBox="0 0 101.6 24.713608"
   version="1.1"
   id="svg1"
   xmlns="http://www.w3.org/2000/svg"
   xmlns:svg="http://www.w3.org/2000/svg">
  <defs
     id="defs1" />
  <g
     id="layer1"
     transform="translate(-3165.5533,-1278.8618)">
    <g
       id="g20-2-8"
       transform="matrix(0.64864869,0,0,0.64864869,1111.5857,652.78608)"
       style="stroke-width:1.54167">
      <path
         id="path21-0-8-2-2-4-4-0-0-7-5"
         style="color:#000000;fill:#2c3643;fill-opacity:1;stroke:none;stroke-width:1.54167;stroke-linecap:round;stroke-linejoin:round;stroke-opacity:1;-inkscape-stroke:none"
         d="m 3185.5816,965.19993 c -8.0014,0 -15.1638,5.01701 -17.9005,12.53611 -2.7367,7.5189 -0.4734,15.9666 5.6561,21.11 6.1294,5.14316 14.8407,5.90506 21.7701,1.90426 a 2.116714,2.1167372 0 0 0 0.7752,-2.89286 2.116714,2.1167372 0 0 0 -2.8924,-0.7736 c -5.4006,3.11816 -12.1548,2.5265 -16.9321,-1.4822 -4.7773,-4.0086 -6.5333,-10.5583 -4.4003,-16.4186 2.1329,-5.8602 7.6877,-9.748 13.9239,-9.748 h 8.4669 a 2.116544,2.1165672 0 0 0 2.1172,-2.1173 2.116544,2.1165672 0 0 0 -2.1172,-2.11781 z" />
      <path
         id="path23-89-1-6-5-3-7-7-6-2-0"
         style="color:#000000;fill:#2c3643;fill-opacity:1;stroke-width:1.54166;stroke-linecap:round;stroke-linejoin:round;-inkscape-stroke:none"
         d="m 3253.3171,965.19993 a 2.1167246,2.1165509 0 0 0 -2.1172,2.11761 2.1167246,2.1165509 0 0 0 2.1172,2.1171 c 3.5279,0 4.7082,1.4504 5.5141,3.0621 0.8059,1.6117 0.8356,3.287 0.8356,3.287 v 23.2815 h -6.3497 a 2.1167246,2.1165509 0 0 0 -2.1172,2.11766 2.1167246,2.1165509 0 0 0 2.1172,2.117 h 8.4654 8.467 a 2.1167246,2.1165509 0 0 0 2.1171,-2.117 2.1167246,2.1165509 0 0 0 -2.1171,-2.11766 h -6.3498 v -23.2815 c 0,0 0.03,-2.5584 -1.2816,-5.1798 -1.3109,-2.6214 -4.3619,-5.40401 -9.301,-5.40401 z" />
      <path
         id="path25-76-5-8-90-0-4-9-8-2-9"
         style="color:#000000;fill:#2c3643;fill-opacity:1;stroke-width:1.54167;stroke-linecap:round;stroke-linejoin:round;-inkscape-stroke:none"
         d="m 3278.7149,965.19993 a 2.1167013,2.116628 0 0 0 -2.1151,2.11761 v 25.3996 c 0,3.7776 2.0197,7.2774 5.2913,9.16616 3.2717,1.8888 7.3124,1.8888 10.584,0 3.2716,-1.88876 5.2914,-5.38856 5.2914,-9.16616 v -25.3996 a 2.1167013,2.116628 0 0 0 -2.1173,-2.11761 2.1167013,2.116628 0 0 0 -2.1172,2.11761 v 25.3996 c -1e-4,2.272 -1.2065,4.3639 -3.1741,5.4998 -1.9676,1.136 -4.3819,1.136 -6.3496,0 -1.9676,-1.1359 -3.1761,-3.2278 -3.1761,-5.4998 v -25.3996 a 2.1167013,2.116628 0 0 0 -2.1173,-2.11761 z" />
      <path
         id="path28-3-0-2-3-2-7-8-9-6-6"
         style="color:#000000;fill:#2c3643;fill-opacity:1;stroke-width:1.54166;stroke-linecap:round;stroke-linejoin:round;-inkscape-stroke:none"
         d="m 3304.1169,965.19993 c -1.1695,-2.4e-4 -2.1176,0.94801 -2.117,2.11761 -3e-4,1.1693 0.9477,2.1173 2.117,2.1171 h 6.3492 v 29.6306 h -6.3492 c -1.1695,-2e-4 -2.1176,0.94816 -2.117,2.11766 -2e-4,1.1692 0.9478,2.1172 2.117,2.117 h 16.9326 c 1.1693,3e-4 2.1173,-0.9477 2.1171,-2.117 6e-4,-1.1696 -0.9475,-2.11796 -2.1171,-2.11766 h -6.3492 v -29.6306 h 6.3492 c 1.1693,3e-4 2.1174,-0.9478 2.1171,-2.1171 6e-4,-1.1696 -0.9476,-2.11791 -2.1171,-2.11761 z" />
      <path
         style="color:#000000;fill:#2c3643;stroke-width:1.54167;stroke-linecap:round;stroke-linejoin:round;-inkscape-stroke:none"
         d="m 3210.9822,982.13343 c -5.8201,-2e-5 -10.5823,4.76374 -10.5823,10.58334 0,5.8196 4.7622,10.58333 10.5823,10.58333 5.8202,-1e-4 10.5844,-4.76378 10.5844,-10.58333 0,-5.81955 -4.7642,-10.58329 -10.5844,-10.58334 z m 0,4.23411 c 3.5323,3e-5 6.3519,2.81738 6.3519,6.34923 0,3.53183 -2.8196,6.34919 -6.3519,6.34922 -3.5322,10e-6 -6.3498,-2.81736 -6.3498,-6.34922 0,-3.53188 2.8176,-6.34925 6.3498,-6.34923 z"
         id="path19-1-3" />
      <path
         style="color:#000000;fill:#2c3643;stroke-width:1.54167;stroke-linecap:round;stroke-linejoin:round;-inkscape-stroke:none"
         d="m 3236.3826,982.13343 c -5.8201,-2e-5 -10.5823,4.76374 -10.5823,10.58334 0,5.8196 4.7621,10.58333 10.5823,10.58333 5.8203,0 10.5844,-4.76373 10.5844,-10.58333 0,-5.8196 -4.7641,-10.58336 -10.5844,-10.58334 z m 0,4.23411 c 3.5323,-2e-5 6.3499,2.81735 6.3499,6.34923 0,3.53186 -2.8176,6.34923 -6.3499,6.34922 -3.5322,10e-6 -6.3498,-2.81736 -6.3498,-6.34922 0,-3.53188 2.8176,-6.34925 6.3498,-6.34923 z"
         id="path19-8-0-8" />
    </g>
  </g>
</svg>
